<svg width="115" height="25" viewBox="0 0 115 25" fill="none" xmlns="http://www.w3.org/2000/svg">
<path fill-rule="evenodd" clip-rule="evenodd" d="M3.53988 10.0599L5.09756 11.6176C5.31451 11.8358 5.43627 12.131 5.43627 12.4388C5.43627 12.7465 5.31451 13.0417 5.09756 13.26L3.53988 14.8177C3.32171 15.0352 3.02621 15.1573 2.71814 15.1573C2.41007 15.1573 2.11456 15.0352 1.8964 14.8177L0.33871 13.26C0.121767 13.0417 0 12.7465 0 12.4388C0 12.131 0.121767 11.8358 0.33871 11.6176L1.8964 10.0599C2.11456 9.84236 2.41007 9.72021 2.71814 9.72021C3.02621 9.72021 3.32171 9.84236 3.53988 10.0599Z" fill="black"/>
<path fill-rule="evenodd" clip-rule="evenodd" d="M3.53997 19.1125L5.09765 20.6702C5.31466 20.8886 5.43645 21.184 5.43645 21.4919C5.43645 21.7998 5.31466 22.0952 5.09765 22.3136L3.53997 23.8713C3.32153 24.0883 3.02613 24.2101 2.71823 24.2101C2.41032 24.2101 2.11492 24.0883 1.89649 23.8713L0.3388 22.3136C0.121794 22.0952 0 21.7998 0 21.4919C0 21.184 0.121794 20.8886 0.3388 20.6702L1.89649 19.1125C2.11492 18.8955 2.41032 18.7737 2.71823 18.7737C3.02613 18.7737 3.32153 18.8955 3.53997 19.1125Z" fill="black"/>
<path fill-rule="evenodd" clip-rule="evenodd" d="M12.5926 1.00619L14.1514 2.56388C14.3684 2.78231 14.4902 3.07771 14.4902 3.38562C14.4902 3.69352 14.3684 3.98892 14.1514 4.20736L12.5926 5.76504C12.3744 5.98199 12.0792 6.10375 11.7714 6.10375C11.4637 6.10375 11.1685 5.98199 10.9502 5.76504L9.39251 4.20736C9.1755 3.98892 9.05371 3.69352 9.05371 3.38562C9.05371 3.07771 9.1755 2.78231 9.39251 2.56388L10.9502 1.00619C11.1685 0.789248 11.4637 0.66748 11.7714 0.66748C12.0792 0.66748 12.3744 0.789248 12.5926 1.00619Z" fill="black"/>
<path fill-rule="evenodd" clip-rule="evenodd" d="M12.5926 10.0598L14.1513 11.6175C14.3682 11.8357 14.49 12.131 14.49 12.4387C14.49 12.7464 14.3682 13.0417 14.1513 13.2599L12.5926 14.8176C12.3746 15.035 12.0792 15.1572 11.7713 15.1572C11.4634 15.1572 11.1681 15.035 10.9501 14.8176L9.39242 13.2599C9.17548 13.0417 9.05371 12.7464 9.05371 12.4387C9.05371 12.131 9.17548 11.8357 9.39242 11.6175L10.9501 10.0598C11.1681 9.84233 11.4634 9.72021 11.7713 9.72021C12.0792 9.72021 12.3746 9.84233 12.5926 10.0598Z" fill="black"/>
<path fill-rule="evenodd" clip-rule="evenodd" d="M12.5926 19.1124L14.1514 20.6701C14.3684 20.8885 14.4902 21.1839 14.4902 21.4918C14.4902 21.7997 14.3684 22.0951 14.1514 22.3136L12.5926 23.8712C12.3744 24.0882 12.0792 24.21 11.7714 24.21C11.4637 24.21 11.1685 24.0882 10.9502 23.8712L9.39251 22.3136C9.1755 22.0951 9.05371 21.7997 9.05371 21.4918C9.05371 21.1839 9.1755 20.8885 9.39251 20.6701L10.9502 19.1124C11.1685 18.8954 11.4637 18.7737 11.7714 18.7737C12.0792 18.7737 12.3744 18.8954 12.5926 19.1124Z" fill="black"/>
<path fill-rule="evenodd" clip-rule="evenodd" d="M21.6459 1.00619L23.2046 2.56388C23.4216 2.78231 23.5434 3.07771 23.5434 3.38562C23.5434 3.69352 23.4216 3.98892 23.2046 4.20736L21.6459 5.76504C21.4276 5.98199 21.1324 6.10375 20.8246 6.10375C20.5169 6.10375 20.2217 5.98199 20.0034 5.76504L18.4447 4.20736C18.2274 3.98906 18.1055 3.6936 18.1055 3.38562C18.1055 3.07763 18.2274 2.78218 18.4447 2.56388L20.0034 1.00619C20.2217 0.789248 20.5169 0.66748 20.8246 0.66748C21.1324 0.66748 21.4276 0.789248 21.6459 1.00619Z" fill="black"/>
<path fill-rule="evenodd" clip-rule="evenodd" d="M21.6458 10.06L23.2045 11.6177C23.4214 11.836 23.5432 12.1312 23.5432 12.439C23.5432 12.7467 23.4214 13.0419 23.2045 13.2602L21.6458 14.8179C21.4278 15.0353 21.1324 15.1574 20.8245 15.1574C20.5166 15.1574 20.2213 15.0353 20.0033 14.8179L18.4446 13.2602C18.2274 13.0421 18.1055 12.7468 18.1055 12.439C18.1055 12.1311 18.2274 11.8359 18.4446 11.6177L20.0023 10.06C20.2203 9.84229 20.5159 9.71997 20.824 9.71997C21.1322 9.71997 21.4277 9.84229 21.6458 10.06Z" fill="black"/>
<path fill-rule="evenodd" clip-rule="evenodd" d="M21.6459 19.1124L23.2046 20.6701C23.4216 20.8885 23.5434 21.1839 23.5434 21.4918C23.5434 21.7997 23.4216 22.0952 23.2046 22.3136L21.6459 23.8713C21.4276 24.0882 21.1324 24.21 20.8246 24.21C20.5169 24.21 20.2217 24.0882 20.0034 23.8713L18.4447 22.3136C18.2274 22.0953 18.1055 21.7998 18.1055 21.4918C18.1055 21.1839 18.2274 20.8884 18.4447 20.6701L20.0024 19.1124C20.2207 18.8952 20.5161 18.7732 20.8241 18.7732C21.1321 18.7732 21.4276 18.8952 21.6459 19.1124Z" fill="black"/>
<path fill-rule="evenodd" clip-rule="evenodd" d="M3.54045 1.00628L5.09814 2.56397C5.31515 2.7824 5.43694 3.0778 5.43694 3.38571C5.43694 3.69361 5.31515 3.98901 5.09814 4.20745L3.54045 5.76513C3.32202 5.98214 3.02662 6.10393 2.71872 6.10393C2.41081 6.10393 2.11541 5.98214 1.89698 5.76513L0.339289 4.20745C0.122282 3.98901 0.000488281 3.69361 0.000488281 3.38571C0.000488281 3.0778 0.122282 2.7824 0.339289 2.56397L1.89698 1.00628C2.11541 0.789274 2.41081 0.66748 2.71872 0.66748C3.02662 0.66748 3.32202 0.789274 3.54045 1.00628Z" fill="black"/>
<path fill-rule="evenodd" clip-rule="evenodd" d="M104.292 0.715627C104.252 0.711035 104.211 0.715568 104.173 0.728889C104.135 0.74221 104.1 0.763977 104.071 0.792574C104.043 0.821172 104.021 0.855865 104.007 0.894079C103.994 0.932293 103.989 0.973046 103.994 1.01331V15.4108C103.989 15.4512 103.994 15.492 104.007 15.5304C104.02 15.5687 104.042 15.6035 104.071 15.6323C104.1 15.661 104.135 15.6828 104.173 15.6962C104.211 15.7096 104.252 15.7142 104.292 15.7095H106.166C106.207 15.7142 106.248 15.7096 106.286 15.6963C106.324 15.6829 106.359 15.661 106.388 15.6323C106.416 15.6035 106.438 15.5687 106.451 15.5303C106.465 15.492 106.469 15.4511 106.464 15.4108V7.61617C107.318 6.6797 108.317 6.27245 109.574 6.27245C111.279 6.27245 112.279 7.25233 112.279 9.29686V15.4087C112.275 15.4491 112.279 15.49 112.293 15.5283C112.306 15.5667 112.328 15.6015 112.357 15.6302C112.385 15.6589 112.42 15.6808 112.458 15.6942C112.497 15.7075 112.538 15.7121 112.578 15.7075H114.452C114.492 15.7119 114.533 15.7072 114.571 15.6938C114.609 15.6803 114.644 15.6584 114.673 15.6297C114.701 15.6011 114.723 15.5663 114.736 15.528C114.75 15.4898 114.754 15.449 114.75 15.4087V9.21417C114.75 5.72049 112.579 3.93126 109.574 3.93126C108.381 3.93126 107.339 4.27236 106.464 5.10237V1.01331C106.469 0.973101 106.464 0.932363 106.451 0.894142C106.438 0.85592 106.416 0.821203 106.387 0.792581C106.359 0.763959 106.324 0.742172 106.286 0.728847C106.247 0.715522 106.207 0.711003 106.166 0.715627H104.292ZM96.8327 3.93126C93.4217 3.93126 90.8262 6.44506 90.8262 9.87363C90.8262 13.3022 93.4248 15.8801 96.8327 15.8801C98.963 15.8801 100.815 14.9426 101.898 13.1534C101.917 13.1282 101.931 13.0994 101.94 13.0687C101.948 13.038 101.95 13.0059 101.946 12.9743C101.942 12.9427 101.932 12.9122 101.916 12.8846C101.9 12.8569 101.879 12.8327 101.854 12.8133L100.51 11.7476C100.383 11.6442 100.277 11.6442 100.17 11.7476C99.2969 13.0262 98.2746 13.5368 96.8265 13.5368C94.7179 13.5368 93.2915 11.9864 93.2915 9.87363C93.2915 7.76088 94.6962 6.27451 96.8265 6.27451C98.2736 6.27451 99.2338 6.80684 100.106 7.99965C100.192 8.10301 100.362 8.19087 100.51 8.04203L101.854 7.01976C101.957 6.93501 101.982 6.82854 101.898 6.6797C100.881 4.93286 98.8359 3.93126 96.8327 3.93126ZM83.2445 6.24867C84.9273 6.24867 86.4395 7.27094 86.6101 8.76247H79.7302C80.0713 7.29264 81.5194 6.24867 83.2445 6.24867ZM87.3977 12.3616C87.3804 12.3329 87.3564 12.3088 87.3277 12.2914C87.299 12.274 87.2666 12.2638 87.2331 12.2618C87.1996 12.2598 87.1661 12.2659 87.1356 12.2797C87.105 12.2935 87.0783 12.3145 87.0576 12.3409C85.9485 13.2557 84.7991 13.5544 83.352 13.5544C81.477 13.5544 80.1571 12.5321 79.7509 11.0623H88.8665C89.037 11.0623 89.1228 10.9589 89.1228 10.7646V9.91601C89.1228 6.44506 86.6948 3.93126 83.2445 3.93126C79.7726 3.93126 77.175 6.44506 77.175 9.91601C77.175 13.3456 79.7085 15.8801 83.352 15.8801C85.0544 15.8801 86.8664 15.3901 88.3982 14.0909C88.5016 13.9875 88.5264 13.8562 88.4199 13.7498L87.3977 12.3657V12.3616ZM69.5923 4.14419L68.2083 4.27236C68.173 4.27314 68.1384 4.28099 68.1063 4.29545C68.0741 4.30991 68.0453 4.33068 68.0214 4.35653C67.9974 4.38237 67.979 4.41276 67.967 4.44589C67.9551 4.47903 67.95 4.51422 67.9519 4.54938V6.09983C67.9473 6.14018 67.9518 6.18105 67.9652 6.21939C67.9786 6.25774 68.0005 6.29257 68.0292 6.32128C68.0579 6.35 68.0927 6.37186 68.1311 6.38524C68.1694 6.39862 68.2103 6.40317 68.2506 6.39855H69.5716V11.9802C69.5716 14.2593 70.6776 15.878 73.2338 15.878C74.3201 15.878 75.1305 15.6434 75.9212 15.1317C76.1125 15.0284 76.1548 14.8981 76.0701 14.7059L75.4943 13.3435C75.4313 13.1937 75.3031 13.1089 75.0695 13.2154C74.5938 13.4529 74.0671 13.57 73.5356 13.5565C72.6198 13.5565 72.0441 13.0024 72.0441 11.9161V6.40268H75.1967C75.237 6.40734 75.2778 6.4028 75.3161 6.38942C75.3544 6.37604 75.3892 6.35416 75.4178 6.32541C75.4465 6.29667 75.4682 6.26182 75.4815 6.22346C75.4947 6.18511 75.4991 6.14426 75.4943 6.10396V4.3995C75.499 4.35929 75.4944 4.31855 75.4811 4.28033C75.4678 4.24211 75.446 4.20739 75.4174 4.17877C75.3888 4.15015 75.3541 4.12836 75.3158 4.11503C75.2776 4.10171 75.2369 4.09719 75.1967 4.10181H72.043V1.84436C72.044 1.80499 72.037 1.76584 72.0224 1.72927C72.0078 1.6927 71.9859 1.65949 71.9581 1.63165C71.9302 1.6038 71.897 1.58191 71.8604 1.5673C71.8239 1.5527 71.7847 1.54568 71.7453 1.54667H70.1246C69.9541 1.54667 69.8476 1.65003 69.8259 1.84436L69.5923 4.14419ZM55.6837 4.10181C55.6435 4.09719 55.6028 4.10171 55.5645 4.11503C55.5263 4.12836 55.4916 4.15015 55.463 4.17877C55.4343 4.20739 55.4126 4.24211 55.3992 4.28033C55.3859 4.31855 55.3814 4.35929 55.386 4.3995V10.7905C55.386 14.3255 57.3241 15.8801 60.2214 15.8801C61.4989 15.8801 62.67 15.5173 63.6716 14.6015H63.7988L63.99 15.4532C64.0032 15.5315 64.046 15.6017 64.1094 15.6494C64.1729 15.697 64.2522 15.7186 64.3311 15.7095H65.8412C65.8816 15.7142 65.9225 15.7096 65.9608 15.6962C65.9991 15.6828 66.034 15.661 66.0627 15.6323C66.0914 15.6035 66.1133 15.5687 66.1266 15.5304C66.14 15.492 66.1446 15.4512 66.14 15.4108V4.3995C66.1444 4.35923 66.1397 4.31848 66.1263 4.28027C66.1128 4.24205 66.0909 4.20736 66.0622 4.17876C66.0335 4.15016 65.9988 4.1284 65.9605 4.11508C65.9223 4.10175 65.8815 4.09722 65.8412 4.10181H63.9693C63.929 4.09702 63.8882 4.10141 63.8498 4.11466C63.8115 4.12791 63.7766 4.14967 63.7479 4.17832C63.7191 4.20696 63.6972 4.24174 63.6839 4.28004C63.6705 4.31835 63.6659 4.35919 63.6706 4.3995V12.0484C62.9036 13.049 61.6674 13.5389 60.4756 13.5389C58.6854 13.5389 57.8554 12.6655 57.8554 10.6447V4.3995C57.86 4.35929 57.8555 4.31855 57.8422 4.28033C57.8288 4.24211 57.807 4.20739 57.7784 4.17877C57.7498 4.15015 57.7151 4.12836 57.6769 4.11503C57.6386 4.10171 57.5979 4.09719 57.5577 4.10181H55.6837ZM44.353 7.65855C45.2698 6.72208 46.1856 6.27451 47.6978 6.27451C49.7207 6.27451 51.2329 7.68026 51.2329 9.89223C51.2329 12.129 49.7207 13.5337 47.6978 13.5337C46.2704 13.5337 45.2698 13.0872 44.353 12.0866V7.65855ZM42.1813 0.715627C42.1411 0.711035 42.1003 0.715568 42.0621 0.728889C42.0238 0.74221 41.989 0.763977 41.9603 0.792574C41.9316 0.821172 41.9097 0.855865 41.8963 0.894079C41.8828 0.932293 41.8782 0.973046 41.8826 1.01331V15.4108C41.878 15.4512 41.8825 15.492 41.8959 15.5304C41.9093 15.5687 41.9312 15.6035 41.9599 15.6323C41.9886 15.661 42.0234 15.6828 42.0618 15.6962C42.1001 15.7096 42.141 15.7142 42.1813 15.7095H43.6284C43.7041 15.7148 43.7791 15.6913 43.8383 15.6438C43.8974 15.5963 43.9366 15.5282 43.9478 15.4532L44.1184 14.6873L44.2672 14.6656C45.1406 15.5173 46.3965 15.8801 47.6968 15.8801C51.1078 15.8801 53.6805 13.4727 53.6805 9.89533C53.6805 6.31793 51.1678 3.93126 47.6968 3.93126C46.4182 3.93126 45.3536 4.25066 44.352 5.0817V1.01331C44.3566 0.973197 44.3521 0.932561 44.3388 0.894425C44.3255 0.856288 44.3038 0.821631 44.2753 0.79303C44.2468 0.764428 44.2123 0.742617 44.1742 0.729217C44.1361 0.715816 44.0955 0.711171 44.0553 0.715627H42.1813ZM36.6855 11.9399C35.9403 12.9404 34.7909 13.5585 33.1711 13.5585C31.8274 13.5585 31.2331 13.0045 31.2331 12.1321C31.2331 11.3858 31.7654 10.8111 32.9365 10.6199L36.6845 9.99973L36.6855 11.9399ZM37.1124 14.3462L37.6447 15.6899C37.6535 15.7273 37.6706 15.7623 37.6948 15.7922C37.719 15.8221 37.7496 15.8461 37.7844 15.8625C37.8192 15.8789 37.8572 15.8873 37.8957 15.8869C37.9341 15.8865 37.972 15.8775 38.0065 15.8604L39.5187 15.3705C39.7523 15.3064 39.774 15.1152 39.711 14.9446L39.4339 14.0505C39.1993 13.2836 39.1569 12.5001 39.1569 11.6432V7.93556C39.1569 5.05999 36.8767 3.93126 34.365 3.93126C32.2347 3.93126 30.7866 4.507 29.3591 5.54994C29.321 5.57702 29.2892 5.61209 29.2659 5.6527C29.2427 5.6933 29.2285 5.73848 29.2245 5.7851C29.2205 5.83171 29.2266 5.87865 29.2426 5.92264C29.2585 5.96664 29.2838 6.00664 29.3167 6.03988L30.1436 7.21099C30.2059 7.28268 30.2925 7.32886 30.3867 7.34069C30.4809 7.35252 30.5762 7.32915 30.6542 7.27507C31.8512 6.52982 32.8104 6.24867 34.365 6.24867C35.6426 6.24867 36.6855 6.65386 36.6855 7.65442V7.90972L32.9375 8.39967C30.3183 8.74076 28.7627 10.1041 28.7627 12.2551C28.7627 14.4258 30.4672 15.8728 32.9158 15.8728C34.6203 15.8728 35.962 15.3405 37.0049 14.3389L37.1124 14.3462Z" fill="black"/>
<path d="M29.1939 21.6552C29.1941 21.6983 29.2063 21.7405 29.2291 21.777C29.2519 21.8135 29.2845 21.8429 29.3231 21.862C29.4427 21.9266 29.5697 21.9762 29.7014 22.0098C29.8125 22.0349 29.9222 22.0656 30.0301 22.1018C30.1337 22.1388 30.2332 22.1866 30.3268 22.2444C30.4276 22.3039 30.5105 22.3897 30.5666 22.4925C30.624 22.603 30.6511 22.7267 30.6451 22.8511C30.6495 22.97 30.6241 23.088 30.5712 23.1945C30.5183 23.3011 30.4396 23.3927 30.3423 23.461C30.123 23.6139 29.8601 23.6918 29.5929 23.6832C29.3534 23.6902 29.1165 23.632 28.9076 23.5147C28.7235 23.4089 28.5785 23.2465 28.4941 23.0517L28.9955 22.7592C29.0864 23.0183 29.2862 23.1478 29.595 23.1478C29.9037 23.1478 30.0563 23.0472 30.0529 22.846C30.0529 22.6992 29.8823 22.5834 29.5412 22.5018C29.4307 22.4748 29.3217 22.442 29.2146 22.4036C29.1137 22.3653 29.0162 22.3187 28.9231 22.264C28.8215 22.2067 28.7377 22.1222 28.6812 22.0201C28.6231 21.9128 28.5955 21.7916 28.6016 21.6697C28.5982 21.5549 28.6219 21.4409 28.6708 21.3369C28.7196 21.2329 28.7922 21.1419 28.8828 21.0712C29.0852 20.9163 29.335 20.8363 29.5898 20.8449C29.796 20.8405 29.9998 20.89 30.181 20.9885C30.3521 21.0848 30.4917 21.2283 30.5831 21.402L30.0921 21.6769C30.0512 21.5782 29.98 21.4951 29.8888 21.4393C29.7976 21.3836 29.6911 21.3583 29.5846 21.3668C29.4846 21.3627 29.3857 21.3894 29.3014 21.4433C29.2664 21.466 29.238 21.4976 29.2191 21.5348C29.2003 21.572 29.1916 21.6136 29.1939 21.6552Z" fill="black"/>
<path d="M31.5259 22.2599C31.5226 22.3725 31.5424 22.4846 31.584 22.5893C31.6256 22.694 31.6881 22.789 31.7678 22.8687C31.9284 23.0245 32.1435 23.1117 32.3673 23.1117C32.5911 23.1117 32.8061 23.0245 32.9668 22.8687C33.122 22.7038 33.2085 22.4859 33.2085 22.2594C33.2085 22.0329 33.122 21.8149 32.9668 21.65C32.8061 21.4942 32.5911 21.407 32.3673 21.407C32.1435 21.407 31.9284 21.4942 31.7678 21.65C31.688 21.7298 31.6254 21.8251 31.5838 21.93C31.5422 22.0348 31.5225 22.1471 31.5259 22.2599ZM32.3663 23.6791C32.0401 23.6764 31.7249 23.5609 31.4743 23.3522C31.2236 23.1435 31.053 22.8544 30.9913 22.5341C30.9296 22.2138 30.9807 21.8821 31.136 21.5952C31.2912 21.3084 31.5409 21.0841 31.8428 20.9605C32.1446 20.8369 32.48 20.8216 32.7918 20.9173C33.1036 21.0129 33.3727 21.2136 33.5534 21.4852C33.734 21.7567 33.8151 22.0825 33.7828 22.4071C33.7505 22.7316 33.6068 23.035 33.3761 23.2656C33.2445 23.4007 33.0864 23.5072 32.9118 23.5783C32.7371 23.6494 32.5496 23.6838 32.3611 23.6791H32.3663Z" fill="black"/>
<path d="M35.6317 19.7614V20.3216C35.2065 20.2865 34.9939 20.465 34.9939 20.8571V20.9098H35.6317V21.4721H34.9939V23.6076H34.412V21.4721H33.9985V20.9098H34.412V20.8571C34.412 20.4819 34.5154 20.1997 34.7221 20.0095C34.9288 19.8193 35.2348 19.7356 35.6317 19.7614Z" fill="black"/>
<path d="M37.5748 20.9098V21.4721H36.9009V22.7662C36.8967 22.8092 36.9012 22.8526 36.9141 22.8938C36.9271 22.9351 36.9483 22.9732 36.9763 23.006C37.0386 23.0597 37.1185 23.0884 37.2006 23.0867C37.3239 23.0933 37.4474 23.0933 37.5707 23.0867V23.6097C37.1242 23.6634 36.8037 23.6252 36.6094 23.4949C36.4161 23.3637 36.3179 23.1208 36.3179 22.7714V21.4721H35.8218V20.9098H36.3179V20.3279L36.9009 20.1553V20.9098H37.5748Z" fill="black"/>
<path d="M40.7085 22.7712L41.2367 20.9097H41.8517L41.0052 23.6075H40.4336L39.8723 21.7893L39.3059 23.6075H38.7333L37.8867 20.9097H38.5017L39.0247 22.7712L39.5922 20.9097H40.1483L40.7085 22.7712Z" fill="black"/>
<path d="M42.8491 22.8789C43.0136 23.0354 43.232 23.1226 43.459 23.1226C43.686 23.1226 43.9043 23.0354 44.0688 22.8789C44.1492 22.7974 44.2122 22.7003 44.2539 22.5937C44.2957 22.4871 44.3153 22.3732 44.3117 22.2587C44.3165 22.1442 44.2973 22.0299 44.2555 21.9231C44.2137 21.8163 44.1501 21.7194 44.0688 21.6385C43.906 21.479 43.687 21.3896 43.459 21.3896C43.231 21.3896 43.012 21.479 42.8491 21.6385C42.7684 21.7197 42.7052 21.8167 42.6636 21.9234C42.622 22.0301 42.6028 22.1443 42.6073 22.2587C42.6044 22.373 42.6243 22.4867 42.6659 22.5931C42.7074 22.6996 42.7697 22.7968 42.8491 22.8789ZM44.3128 21.2933V20.9098H44.8947V23.6076H44.3128V23.22C44.2062 23.3697 44.0638 23.4901 43.8985 23.5703C43.7333 23.6505 43.5505 23.6879 43.367 23.6789C43.1887 23.6806 43.012 23.6446 42.8485 23.5733C42.685 23.5021 42.5384 23.3972 42.4181 23.2655C42.1644 22.991 42.0234 22.631 42.0234 22.2572C42.0234 21.8834 42.1644 21.5233 42.4181 21.2489C42.5383 21.1171 42.685 21.0122 42.8485 20.9409C43.012 20.8697 43.1887 20.8337 43.367 20.8354C43.5499 20.8261 43.7322 20.8626 43.8974 20.9417C44.0625 21.0207 44.2053 21.1398 44.3128 21.2881V21.2933Z" fill="black"/>
<path d="M46.1599 20.9099V21.3626C46.3066 21.0291 46.5823 20.8623 46.9868 20.8623V21.4928C46.7793 21.4752 46.5723 21.5328 46.4038 21.6551C46.2384 21.7729 46.1557 21.9724 46.1557 22.2484V23.6076H45.5728V20.9099H46.1599Z" fill="black"/>
<path d="M47.754 22.0335H49.3406C49.3134 21.8429 49.2188 21.6683 49.074 21.5415C48.9321 21.425 48.753 21.3637 48.5696 21.3689C48.3753 21.3585 48.1842 21.4208 48.0334 21.5437C47.8826 21.6665 47.783 21.8412 47.754 22.0335ZM49.9071 22.5079H47.754C47.789 22.6961 47.8944 22.8639 48.0486 22.9772C48.2155 23.0927 48.4153 23.151 48.6181 23.1436C48.753 23.1516 48.8877 23.125 49.0094 23.0664C49.1311 23.0078 49.2359 22.9191 49.3138 22.8087L49.7944 23.0909C49.5319 23.483 49.1377 23.679 48.6119 23.679C48.4167 23.6871 48.2219 23.6558 48.039 23.5871C47.8561 23.5184 47.6889 23.4136 47.5473 23.279C47.2889 23.0046 47.145 22.6419 47.145 22.265C47.145 21.8881 47.2889 21.5254 47.5473 21.251C47.6794 21.114 47.8389 21.0063 48.0154 20.9351C48.1919 20.8639 48.3814 20.8306 48.5716 20.8376C48.7538 20.8323 48.935 20.8665 49.1027 20.9379C49.2704 21.0093 49.4207 21.1161 49.5432 21.251C49.6941 21.4188 49.8049 21.6187 49.8674 21.8355C49.9298 22.0523 49.9424 22.2804 49.904 22.5028L49.9071 22.5079Z" fill="black"/>
<path d="M52.4583 22.8792C52.6229 23.0358 52.8414 23.1231 53.0686 23.1231C53.2958 23.1231 53.5143 23.0358 53.679 22.8792C53.7592 22.7976 53.822 22.7005 53.8637 22.5939C53.9055 22.4874 53.9253 22.3735 53.9219 22.2591C53.9262 22.1445 53.9069 22.0304 53.8651 21.9236C53.8233 21.8169 53.76 21.72 53.679 21.6389C53.5159 21.4792 53.2968 21.3898 53.0686 21.3898C52.8404 21.3898 52.6213 21.4792 52.4583 21.6389C52.3775 21.7201 52.3143 21.8171 52.2727 21.9238C52.2311 22.0305 52.2119 22.1446 52.2164 22.2591C52.2135 22.3733 52.2334 22.487 52.275 22.5935C52.3165 22.7 52.3788 22.7971 52.4583 22.8792ZM53.9219 21.2936V19.8311H54.5038V23.608H53.9219V23.2203C53.8154 23.3698 53.6732 23.4902 53.5081 23.5704C53.343 23.6506 53.1605 23.688 52.9771 23.6793C52.7986 23.6811 52.6217 23.6452 52.458 23.574C52.2944 23.5027 52.1475 23.3977 52.0272 23.2658C51.7739 22.9911 51.6333 22.6312 51.6333 22.2575C51.6333 21.8839 51.7739 21.5239 52.0272 21.2492C52.1475 21.1173 52.2943 21.0122 52.458 20.941C52.6217 20.8697 52.7986 20.8339 52.9771 20.8357C53.1603 20.8271 53.3428 20.8644 53.5078 20.9444C53.6728 21.0244 53.8152 21.1445 53.9219 21.2936Z" fill="black"/>
<path d="M55.6379 22.0335H57.2235C57.1945 21.844 57.0984 21.6712 56.9527 21.5466C56.811 21.43 56.6318 21.3687 56.4483 21.374C56.253 21.3671 56.0617 21.4301 55.9088 21.5518C55.7618 21.676 55.6643 21.8487 55.6338 22.0387L55.6379 22.0335ZM57.791 22.5079H55.6431C55.6777 22.6962 55.7831 22.8642 55.9377 22.9772C56.1042 23.0927 56.3037 23.151 56.5062 23.1436C56.6412 23.1515 56.776 23.1249 56.8978 23.0663C57.0197 23.0077 57.1247 22.9191 57.2029 22.8087L57.6825 23.0909C57.4199 23.4826 57.0271 23.679 56.501 23.679C56.3061 23.6869 56.1117 23.6556 55.9291 23.5868C55.7466 23.5181 55.5797 23.4134 55.4384 23.279C55.1791 23.0054 55.0342 22.643 55.0332 22.2661C55.0322 21.8891 55.1754 21.526 55.4333 21.251C55.5656 21.114 55.7252 21.0063 55.9019 20.9351C56.0786 20.8638 56.2683 20.8306 56.4586 20.8376C56.6407 20.8325 56.8216 20.8668 56.9892 20.9381C57.1567 21.0095 57.3068 21.1162 57.4292 21.251C57.6833 21.5243 57.8209 21.8858 57.8127 22.2588C57.8119 22.3406 57.8046 22.4221 57.791 22.5028V22.5079Z" fill="black"/>
<path d="M59.2965 22.9604L60.0459 20.9097H60.6837L59.6314 23.6075H58.9565L57.9053 20.9097H58.542L59.2965 22.9604Z" fill="black"/>
<path d="M61.3977 22.0335H62.9843C62.9563 21.8429 62.8614 21.6685 62.7166 21.5415C62.5748 21.425 62.3957 21.3637 62.2122 21.3689C62.0169 21.3619 61.8256 21.425 61.6727 21.5466C61.5257 21.6708 61.4282 21.8435 61.3977 22.0335ZM63.5497 22.5079H61.3977C61.432 22.6961 61.537 22.864 61.6913 22.9772C61.8582 23.0927 62.058 23.151 62.2608 23.1436C62.3956 23.1514 62.5302 23.1247 62.6519 23.0662C62.7736 23.0076 62.8784 22.919 62.9564 22.8087L63.4371 23.0909C63.1745 23.483 62.7804 23.679 62.2546 23.679C62.0597 23.6869 61.8652 23.6555 61.6827 23.5868C61.5002 23.5181 61.3333 23.4134 61.192 23.279C60.9341 23.0044 60.7905 22.6418 60.7905 22.265C60.7905 21.8883 60.9341 21.5257 61.192 21.251C61.3241 21.114 61.4836 21.0063 61.6601 20.9351C61.8366 20.8639 62.0261 20.8306 62.2163 20.8376C62.3985 20.8323 62.5797 20.8665 62.7474 20.9379C62.9152 21.0093 63.0654 21.1161 63.188 21.251C63.4424 21.524 63.5801 21.8857 63.5714 22.2588C63.5707 22.3406 63.5631 22.4222 63.5487 22.5028L63.5497 22.5079Z" fill="black"/>
<path d="M64.083 23.6076H64.6649V19.6694H64.083V23.6076Z" fill="black"/>
<path d="M65.77 22.2599C65.7665 22.3727 65.7863 22.485 65.8283 22.5898C65.8703 22.6946 65.9335 22.7895 66.0139 22.8687C66.1742 23.0244 66.3889 23.1115 66.6124 23.1115C66.8359 23.1115 67.0506 23.0244 67.2109 22.8687C67.3675 22.7045 67.4549 22.4863 67.4549 22.2594C67.4549 22.0325 67.3675 21.8142 67.2109 21.6501C67.0924 21.5304 66.9407 21.4489 66.7755 21.4163C66.6102 21.3837 66.439 21.4013 66.2839 21.4669C66.1288 21.5326 65.9969 21.6432 65.9053 21.7846C65.8137 21.9259 65.7666 22.0915 65.77 22.2599ZM66.6124 23.6791C66.2862 23.6767 65.9709 23.5614 65.7201 23.3528C65.4693 23.1442 65.2984 22.8552 65.2366 22.5349C65.1747 22.2146 65.2257 21.8828 65.3808 21.5958C65.5359 21.3088 65.7856 21.0844 66.0874 20.9607C66.3893 20.837 66.7247 20.8216 67.0366 20.9172C67.3485 21.0128 67.6176 21.2134 67.7984 21.485C67.9791 21.7565 68.0602 22.0823 68.0279 22.4069C67.9956 22.7316 67.8519 23.035 67.6212 23.2656C67.4904 23.4 67.3333 23.506 67.1598 23.5771C66.9862 23.6483 66.7999 23.683 66.6124 23.6791Z" fill="black"/>
<path d="M69.3928 22.879C69.557 23.0356 69.7752 23.123 70.0021 23.123C70.229 23.123 70.4472 23.0356 70.6114 22.879C70.6919 22.7975 70.7551 22.7005 70.797 22.5939C70.8389 22.4873 70.8588 22.3733 70.8554 22.2588C70.86 22.1442 70.8406 22.0298 70.7986 21.923C70.7566 21.8163 70.6929 21.7194 70.6114 21.6386C70.4489 21.4788 70.23 21.3893 70.0021 21.3893C69.7742 21.3893 69.5553 21.4788 69.3928 21.6386C69.3115 21.7195 69.2479 21.8164 69.2061 21.9232C69.1643 22.0299 69.1451 22.1442 69.1499 22.2588C69.1469 22.3732 69.1669 22.4869 69.2086 22.5935C69.2503 22.7 69.3129 22.7971 69.3928 22.879ZM70.0946 20.8407C70.2731 20.8393 70.4498 20.8754 70.6134 20.9466C70.7771 21.0178 70.9239 21.1226 71.0445 21.2541C71.297 21.5282 71.4372 21.8872 71.4372 22.2598C71.4372 22.6325 71.297 22.9915 71.0445 23.2656C70.9241 23.3973 70.7772 23.5022 70.6136 23.5734C70.4499 23.6447 70.2731 23.6806 70.0946 23.679C69.9119 23.6874 69.7299 23.6503 69.5651 23.5711C69.4002 23.492 69.2575 23.3731 69.1499 23.2253V24.6878H68.5669V20.9099H69.1509V21.2996C69.257 21.15 69.399 21.0295 69.564 20.9493C69.7289 20.8691 69.9114 20.8317 70.0946 20.8407Z" fill="black"/>
<path d="M74.9125 20.8407C75.0496 20.8349 75.1862 20.8584 75.3135 20.9096C75.4407 20.9607 75.5556 21.0384 75.6506 21.1373C75.8455 21.356 75.9465 21.6427 75.9317 21.9353V23.6077H75.3518V21.9736C75.3613 21.8169 75.3111 21.6625 75.2113 21.5415C75.1628 21.4888 75.1033 21.4475 75.037 21.4206C74.9707 21.3936 74.8993 21.3816 74.8278 21.3854C74.747 21.3814 74.6663 21.3956 74.5917 21.4269C74.5171 21.4582 74.4505 21.5058 74.3968 21.5663C74.2818 21.7185 74.2259 21.9073 74.2396 22.0976V23.6077H73.6577V21.9736C73.6675 21.8176 73.6205 21.6634 73.5254 21.5394C73.4784 21.4873 73.4203 21.4463 73.3553 21.4197C73.2904 21.393 73.2203 21.3813 73.1502 21.3854C73.0688 21.3822 72.9878 21.3969 72.9128 21.4286C72.8377 21.4602 72.7706 21.5079 72.7161 21.5684C72.5972 21.7181 72.5386 21.9069 72.5517 22.0976V23.6077H71.9688V20.9099H72.5517V21.2366C72.6343 21.109 72.7491 21.0055 72.8845 20.9366C73.0199 20.8676 73.1711 20.8356 73.3228 20.8438C73.4776 20.8359 73.6314 20.8716 73.7668 20.9469C73.9022 21.0222 74.0138 21.134 74.0887 21.2697C74.2658 20.9857 74.5415 20.8438 74.9156 20.8438L74.9125 20.8407Z" fill="black"/>
<path d="M77.0037 22.0335H78.5904C78.5636 21.8449 78.4701 21.6721 78.3268 21.5466C78.1855 21.4299 78.0066 21.3686 77.8234 21.374C77.6281 21.3669 77.4367 21.4299 77.2839 21.5518C77.1366 21.6759 77.0387 21.8486 77.0079 22.0386L77.0037 22.0335ZM79.1568 22.5079H77.0141C77.0484 22.6961 77.1534 22.864 77.3076 22.9772C77.4745 23.0928 77.6743 23.1512 77.8772 23.1436C78.012 23.1513 78.1466 23.1246 78.2682 23.066C78.3899 23.0074 78.4947 22.9189 78.5728 22.8087L79.0534 23.0909C78.7895 23.483 78.3957 23.679 77.872 23.679C77.677 23.6869 77.4823 23.6556 77.2996 23.5868C77.1169 23.5181 76.9499 23.4134 76.8084 23.279C76.5498 23.005 76.4053 22.6428 76.4043 22.266C76.4033 21.8893 76.546 21.5263 76.8032 21.251C76.9356 21.114 77.0953 21.0064 77.2719 20.9352C77.4486 20.864 77.6382 20.8307 77.8286 20.8375C78.0108 20.8323 78.1919 20.8665 78.3597 20.9379C78.5274 21.0092 78.6777 21.1161 78.8002 21.251C79.054 21.5243 79.1912 21.8859 79.1826 22.2588C79.1818 22.3405 79.1745 22.4221 79.1609 22.5027L79.1568 22.5079Z" fill="black"/>
<path d="M81.1187 20.8408C81.2579 20.8347 81.3969 20.8581 81.5264 20.9096C81.656 20.9611 81.7731 21.0394 81.8701 21.1395C82.0673 21.3628 82.169 21.6545 82.1534 21.952V23.6058H81.5714V22.0109C81.5771 21.9266 81.5656 21.842 81.5377 21.7622C81.5098 21.6825 81.4661 21.6092 81.4091 21.5468C81.3501 21.4914 81.2805 21.4486 81.2044 21.4209C81.1284 21.3932 81.0475 21.3812 80.9667 21.3855C80.8739 21.3807 80.7812 21.3958 80.6947 21.4299C80.6082 21.4639 80.53 21.5161 80.4654 21.583C80.3319 21.7454 80.266 21.9531 80.2814 22.1628V23.6099H79.6943V20.9121H80.2773V21.2584C80.4599 20.98 80.7404 20.8408 81.1187 20.8408Z" fill="black"/>
<path d="M84.2838 20.9098V21.4721H83.6202V22.7662C83.6157 22.8092 83.6201 22.8527 83.6331 22.894C83.646 22.9352 83.6673 22.9733 83.6956 23.006C83.7573 23.06 83.837 23.0887 83.9189 23.0867C84.0422 23.0933 84.1657 23.0933 84.2889 23.0867V23.6097C83.8424 23.6634 83.522 23.6252 83.3277 23.4949C83.1333 23.3637 83.0362 23.1208 83.0362 22.7714V21.4721H82.54V20.9098H83.0362V20.3279L83.6202 20.1553V20.9098H84.2838Z" fill="black"/>
</svg>
