<svg width="83" height="41" viewBox="0 0 83 41" fill="none" xmlns="http://www.w3.org/2000/svg">
<path d="M22.6225 11.7717L22.5563 11.7656L22.495 11.7429C22.3461 11.6449 22.2897 11.6099 22.2008 11.5529C22.0997 11.488 22.0746 11.4837 21.9643 11.4052L21.9269 11.3789L21.8331 11.2955C21.6873 11.1668 21.7155 11.2042 21.5917 11.1013C21.4133 10.9524 21.2031 10.8463 21.0401 10.6833C19.4522 9.11199 18.4202 7.24038 18.1193 4.97655C17.9158 3.44445 18.4962 2.08027 19.5969 1.5232C20.3519 1.14078 21.0738 1.09421 21.7639 1.33015C22.1115 1.45322 22.4315 1.64366 22.7054 1.89058C22.9794 2.1375 23.2019 2.43604 23.3603 2.7691C23.8114 3.69571 23.7997 4.71303 23.4725 5.75179C22.9327 7.44462 22.7839 9.23784 23.0373 10.9965C23.0858 11.3427 23.0968 11.6939 22.6225 11.7717ZM18.8952 4.63336C19.508 3.87711 20.0945 3.49225 20.8863 3.47448C21.5371 3.46038 22.0249 3.79622 22.5563 4.20498C22.5875 4.22908 22.625 4.24355 22.6643 4.24664C22.7036 4.24973 22.743 4.2413 22.7776 4.22238C22.8122 4.20346 22.8405 4.17487 22.8591 4.14011C22.8777 4.10535 22.8858 4.06592 22.8823 4.02665C22.821 3.29921 22.5042 2.79116 21.922 2.4253C21.265 2.01469 20.5682 2.01653 19.9106 2.39527C19.1421 2.84387 18.8443 3.55599 18.8952 4.63336Z" fill="#DADADA"/>
<path d="M24.2676 18.0804C24.2347 18.0633 24.2079 18.0364 24.1909 18.0035C24.1739 17.9706 24.1675 17.9332 24.1726 17.8965C24.2014 17.682 24.3099 17.5074 24.4441 17.3272C25.1433 16.3889 25.4467 15.3226 25.4651 14.1227C25.4914 12.403 25.1108 10.6865 25.5043 8.96009C25.8475 7.45373 26.6227 6.39106 28.0782 6.02275C29.5601 5.6434 30.8329 6.07852 31.8055 7.35935C31.8176 7.3751 31.8307 7.39005 31.8447 7.40409C31.9822 7.5377 32.0905 7.69838 32.1628 7.87598C32.7235 9.3327 32.6145 10.7735 31.9832 12.2271C30.8973 14.7343 29.1495 16.5575 26.7827 17.6814C26.0166 18.0467 25.1727 18.5192 24.2676 18.0804ZM30.7545 7.63513L30.586 7.53033C30.5585 7.4734 30.5155 7.4254 30.462 7.39189C30.4084 7.35838 30.3464 7.34072 30.2832 7.34097C30.2716 7.25088 30.2256 7.22514 30.1466 7.26068C29.5006 6.95426 28.8479 6.91137 28.1855 7.20553L27.9894 7.31094C27.9672 7.31129 27.9454 7.31705 27.926 7.32773C27.9065 7.33842 27.89 7.35369 27.8778 7.37222C27.7552 7.35261 27.6498 7.37222 27.6069 7.51869C27.2503 7.74299 26.9641 8.03348 26.8415 8.46246C26.7104 8.51578 26.6717 8.61935 26.6944 8.75663C26.6772 8.77324 26.6639 8.79345 26.6555 8.8158C26.647 8.83815 26.6435 8.8621 26.6454 8.88594L26.5553 9.07653L26.4903 9.34802C26.3788 9.44791 26.3678 9.57354 26.4107 9.71572L26.3733 10.0552C26.1698 10.3543 26.2507 10.6387 26.5044 10.825C26.7894 11.0346 26.9334 10.7955 27.029 10.5357C27.371 9.75065 27.9011 9.15375 28.6426 8.7695L28.8302 8.66531C29.5527 8.43795 30.3047 8.51701 31.0413 8.43489C31.6125 7.92071 31.0719 7.82572 30.7692 7.63819L30.7545 7.63513Z" fill="#DADADA"/>
<path d="M18.8311 4.58897C18.8311 4.58897 18.578 4.83411 18.4211 4.58897C18.2642 4.34383 18.3978 2.78354 19.3404 2.2424C20.115 1.79748 21.2469 1.67859 22.0687 2.38642C22.382 2.66675 22.6074 3.03178 22.7177 3.43744C22.8403 3.8603 22.8262 4.11157 22.7992 4.51604C22.7864 4.71154 22.6589 4.76118 22.5228 4.62268C22.5051 4.60429 22.4867 4.58284 22.4665 4.55833C22.2735 4.31879 22.034 4.12093 21.7623 3.97674C21.0894 3.62436 19.9569 3.35716 18.8311 4.58897Z" fill="white"/>
<path d="M26.9269 10.9211C26.9269 10.9211 26.7296 11.317 26.4366 11.1441C26.1437 10.9713 25.6258 9.25536 26.5236 8.1737C27.2253 7.32676 28.4449 6.61586 29.6761 6.80768C29.9967 6.8614 30.3032 6.9789 30.5775 7.15322C30.8518 7.32755 31.0884 7.55515 31.2732 7.82254C31.465 8.09587 31.5453 8.33794 31.6592 8.6891C31.7285 8.90114 31.598 9.02432 31.3749 8.95017C31.342 8.93959 31.3097 8.92731 31.2781 8.9134C30.9314 8.76345 30.5581 8.68508 30.1805 8.68297C29.2189 8.67929 27.7444 9.0139 26.9269 10.9211Z" fill="white"/>
<path d="M4.47484 20.143L5.79674 19.7808C5.84822 19.7704 5.89908 19.7587 5.94995 19.7452C9.18146 18.8983 12.4154 18.0593 15.7909 18.0593C20.0459 18.0593 22.5794 20.6412 22.3483 24.8931C22.0002 31.3181 18.7326 35.7349 12.7751 38.0526C9.4842 39.3328 5.99346 39.9843 2.5542 40.7736C2.1056 40.8766 1.69623 40.8625 1.27704 40.6903H1.28133C0.920371 40.0106 1.20657 39.6135 1.85618 39.3684C2.80976 39.0074 3.34293 38.405 3.3607 37.2958C3.43302 32.754 3.57336 28.2141 3.67815 23.6729C3.70328 22.5827 3.53107 22.4277 2.4874 22.3829C2.09825 22.3664 1.58898 22.4705 1.48909 21.9178C1.39348 21.3969 1.76732 21.1266 2.20734 20.9648C2.96297 20.6878 3.71799 20.4132 4.47484 20.143ZM10.8233 36.6216L10.8882 36.5977L10.9569 36.5726C15.889 34.7494 18.0186 28.3017 16.7316 24.0983L16.6881 23.9401C16.6501 23.8245 16.617 23.7073 16.5889 23.5884L16.5276 23.3334C16.5108 23.2853 16.489 23.2391 16.4626 23.1955C16.4418 23.1601 16.4233 23.1232 16.4075 23.0852C16.3903 23.0538 16.3758 23.021 16.3639 22.9872C16.3199 22.8752 16.2616 22.7693 16.1905 22.6722C16.0882 22.5128 15.9913 22.4234 15.8933 22.2922C15.8472 22.2326 15.8062 22.1693 15.7707 22.1028L15.7664 22.0955C14.6995 20.4745 12.4601 19.8985 10.3391 20.67C9.29422 21.05 8.74573 21.7296 8.72489 22.8677C8.6489 27.1018 8.54104 31.3359 8.46382 35.57C8.44176 36.7614 9.0068 37.1468 10.208 36.8245L10.2692 36.8067L10.3201 36.7883C10.4869 36.7459 10.6507 36.6925 10.8104 36.6284L10.8233 36.6216Z" fill="#DADADA"/>
<path d="M34.4413 34.0003C34.4102 33.9597 34.3858 33.9144 34.369 33.8661C34.3534 33.7898 34.3534 33.7113 34.369 33.635C34.3845 33.5739 34.4106 33.5161 34.4462 33.464C34.5618 33.3093 34.7197 33.1914 34.9009 33.1245C35.3501 32.9523 35.352 32.4602 35.3655 31.7524C35.4212 28.85 35.4427 25.9874 35.5371 23.1812C35.5744 22.0579 35.5873 21.5774 34.8078 21.4965C34.4239 21.4635 34.066 21.2887 33.8039 21.0062C33.6983 20.8863 33.6418 20.7309 33.6458 20.5711C33.6458 20.4884 33.6207 20.4148 33.7911 20.3051C35.7748 19.7438 37.8432 19.4901 39.7448 18.6192C40.221 18.4011 40.5758 18.7375 40.7217 19.2229C40.7909 19.4533 40.8265 19.6935 40.8792 19.9387C41.1193 19.8183 41.3516 19.683 41.5748 19.5336C41.6079 19.5158 41.6207 19.5023 41.682 19.4723C41.9186 19.3393 42.1373 19.2069 42.3917 19.0433C42.4292 19.0214 42.4686 19.0027 42.5093 18.9875C42.9635 18.8086 43.4114 18.6094 43.8735 18.4538C45.7077 17.8342 47.4127 17.8519 48.7634 19.5029C49.4988 20.9057 49.5932 22.4145 49.5392 23.9589C49.4645 26.1149 49.4259 28.2727 49.3658 30.4293C49.3548 30.8344 49.4111 31.1763 49.8273 31.3871C50.1079 31.5299 50.2912 31.7824 50.2164 32.1287C50.1386 32.4896 49.8352 32.576 49.5319 32.6097C47.8772 32.7936 46.2225 32.994 44.5642 33.1374C43.7332 33.2091 43.5224 32.9156 43.8337 32.0686L43.8741 32.0073L43.9526 31.9822C44.6065 31.9295 44.6206 31.5091 44.6359 30.9765C44.6757 29.7993 44.7113 28.6251 44.737 27.4484C44.782 25.4248 44.8228 23.4012 44.8596 21.3776C44.8724 20.7525 44.6414 20.2445 43.9673 20.2292C42.676 20.1991 40.3515 21.7864 40.346 23.4656C40.3319 26.1173 40.2339 28.7691 40.1671 31.4208C40.156 31.8676 40.2112 32.2568 40.5348 32.6287C40.9595 33.119 40.737 33.5676 40.1573 33.6454C38.4333 33.8765 36.7284 34.284 34.9788 34.2902C34.8722 34.2899 34.7674 34.2632 34.6737 34.2127C34.5799 34.1621 34.5001 34.0891 34.4413 34.0003Z" fill="#DADADA"/>
<path d="M82.251 16.5616C81.8563 16.7307 81.7919 17.1653 81.6608 17.5121C80.8267 19.7092 80.0147 21.9154 79.1923 24.1191C79.1267 24.295 79.0311 24.4611 78.9471 24.6321C78.9501 24.6581 78.9463 24.6844 78.9362 24.7085C78.9261 24.7326 78.9101 24.7538 78.8895 24.77C77.9838 27.5247 77.0155 30.2592 75.8382 32.906C74.6125 35.6602 72.5387 37.3056 69.4978 37.4834C69.2441 37.5032 68.989 37.47 68.7489 37.3859C68.5037 37.2934 68.3046 37.1408 68.2905 36.7786C68.2739 36.3251 68.6257 36.1964 68.9646 36.0683C72.1612 34.85 73.73 31.6749 72.7697 28.3269C71.8848 25.2468 70.5298 22.3499 69.2539 19.423C68.9168 18.6483 68.782 17.7223 67.8253 17.3442C67.6016 17.2553 67.5189 16.9649 67.6194 16.6983C67.7463 16.3575 68.0539 16.2871 68.3548 16.2754C69.5566 16.2439 70.756 16.1521 71.9485 16.0002L72.1109 15.9837C72.6508 15.9408 73.1901 15.9016 73.7276 15.8519C74.0481 15.8219 74.2981 15.8795 74.4532 16.0621C74.5403 16.1713 74.5854 16.3082 74.5801 16.4478C74.5748 16.5874 74.5195 16.7204 74.4244 16.8227C74.1645 17.1119 73.8232 17.3626 74.0021 17.8614C74.8227 20.1369 75.6397 22.4142 76.5246 24.8778C76.9787 23.7361 77.3636 22.7574 77.6277 21.7524C77.6541 21.6519 77.6859 21.5532 77.7178 21.4545C77.7662 21.3068 77.806 21.1579 77.8624 21.0114C77.9047 20.8778 77.958 20.7792 78.0279 20.561C78.0818 20.3919 78.1149 20.2184 78.1731 20.0511C78.4716 19.1987 78.7615 18.3437 79.0807 17.5005C79.2223 17.1236 79.0593 16.8999 78.8472 16.6223C78.3343 15.9531 78.5451 15.4793 79.3835 15.4187C80.3113 15.3506 81.2404 15.3218 82.1682 15.2814C82.3266 15.2745 82.4822 15.325 82.6064 15.4236V15.4266C82.805 15.9022 82.8399 16.3103 82.251 16.5616Z" fill="#DADADA"/>
<path d="M68.1479 28.1575C68.0909 28.0651 68.0029 27.9959 67.8997 27.9623C67.7965 27.9286 67.6846 27.9326 67.5841 27.9736C67.3053 28.0888 67.0595 28.2739 66.7948 28.4241C65.8951 28.9309 65.5201 28.7237 65.5464 27.704C65.6157 25.1337 65.7045 22.5641 65.7983 19.9957C65.8308 19.096 65.7309 18.1915 65.9 17.2992C65.7321 16.6183 65.2688 16.3186 64.5959 16.2665C63.6153 16.1875 62.6869 16.3205 61.873 16.9192C61.6953 17.0491 61.5544 17.1956 61.2957 17.0718C59.1042 16.0263 57.1603 16.6741 55.3169 17.9696C55.0105 18.2411 54.7972 18.428 54.5343 18.675C54.4883 18.7295 54.4424 18.7822 54.3964 18.8362L54.2561 18.9925C54.2279 19.0445 54.1672 19.0868 54.1562 19.1205C54.0998 19.1873 54.0789 19.218 54.0195 19.2934V19.2983C53.8577 19.5648 53.7247 19.7971 53.5666 20.0502C53.5237 20.1182 53.4771 20.185 53.4306 20.2512C53.3697 20.3377 53.3134 20.4273 53.262 20.5196C53.2122 20.6177 53.1621 20.7158 53.1119 20.8138C53.0689 20.8975 53.0308 20.9837 52.9979 21.0718C52.9556 21.1846 52.9127 21.2961 52.8612 21.4107C52.8042 21.5664 52.7724 21.6258 52.719 21.7784C52.7019 21.8299 52.6964 21.8716 52.6829 21.92C52.5885 22.2718 52.5297 22.4605 52.4378 22.816L52.431 22.8374C52.3717 23.0432 52.3291 23.2535 52.3035 23.4662L52.2472 23.829C52.2144 24.0337 52.1965 24.2406 52.1938 24.448C52.1773 25.6191 52.0835 26.7939 52.3636 27.9509C52.6333 29.0626 52.898 30.1651 53.7695 30.9839C53.8271 31.0366 53.8847 31.0893 53.9404 31.142C55.1048 32.0613 56.1172 32.2598 57.3871 31.9534C58.8836 31.5918 60.0406 30.6052 61.0341 29.4487C61.1395 29.3262 61.2112 29.241 61.3956 29.2036C61.4643 29.279 61.509 29.4254 61.5421 29.5468C61.8957 30.8644 62.5619 31.3528 63.9034 31.2787C65.6757 31.1806 67.6154 29.9414 68.1871 28.5883C68.2156 28.5203 68.2272 28.4464 68.2211 28.3729C68.2151 28.2994 68.1914 28.2285 68.1522 28.1661L68.1479 28.1575ZM61.414 26.8399C61.3564 27.609 61.0341 27.9087 60.5867 28.269L60.5573 28.3003C60.2159 28.6257 59.9181 28.7648 59.5816 28.9652C59.5336 28.9945 59.4837 29.0205 59.4321 29.043C59.2454 29.1236 59.0488 29.179 58.8474 29.2079C58.5496 29.2416 58.4926 29.2508 58.2524 29.2079L58.2193 29.1999C57.1603 28.9615 56.8183 28.0803 56.6455 27.2106C56.151 24.7207 56.4286 22.3079 57.721 20.079C58.1408 19.3583 58.7102 18.7583 59.5069 18.444C60.6645 17.9886 61.5967 18.5825 61.5783 19.7922C61.5427 22.1424 61.5905 24.4964 61.4159 26.8399H61.414Z" fill="#DADADA"/>
<path d="M26.0762 35.9533C25.5596 35.9662 25.2109 35.968 25.0994 35.5574C25.0099 35.2283 25.146 34.9783 25.4469 34.8079C25.9984 34.4947 26.0732 33.9646 26.0867 33.3984C26.1606 30.3097 26.2395 27.2213 26.3232 24.1335C26.3367 23.6199 26.2619 23.1425 25.7815 22.8434C25.5229 22.681 25.3874 22.4757 25.4371 22.165C25.491 21.8335 25.7478 21.7091 26.0199 21.6747C27.6224 21.4786 29.0743 20.8597 30.4893 20.1267C30.8098 19.9612 31.1518 19.8093 31.4527 20.1598C31.7328 20.4864 31.6225 20.8125 31.4239 21.1403C31.1868 21.5109 31.0545 21.9386 31.0409 22.3783C30.9669 25.8776 30.8903 29.3769 30.8111 32.8762C30.8019 33.2917 30.8503 33.6662 31.1248 34.0284C31.525 34.5566 31.3822 34.985 30.7406 35.1143C29.1343 35.4342 27.5164 35.6971 26.0762 35.9533Z" fill="#DADADA"/>
<path d="M3.3511 19.3301L4.67299 18.9679C4.72386 18.9569 4.77534 18.9453 4.82559 18.9318C8.05771 18.0854 11.2917 17.2458 14.6672 17.2458C18.9221 17.2458 21.455 19.8284 21.2246 24.0802C20.8759 30.5046 17.6088 34.9214 11.6508 37.2391C8.36045 38.52 4.86971 39.1708 1.42984 39.9626C0.981243 40.0656 0.571866 40.0515 0.153297 39.8793H0.156974C-0.203376 39.1978 0.0846585 38.7982 0.735495 38.5531C1.68969 38.1927 2.22224 37.5903 2.24063 36.4804C2.31294 31.9411 2.45145 27.3994 2.55563 22.8601C2.58014 21.7692 2.40793 21.6142 1.36488 21.5694C0.975115 21.5529 0.466458 21.6577 0.366565 21.1049C0.272188 20.5834 0.64602 20.3137 1.08788 20.1513C1.84167 19.8764 2.59608 19.6026 3.3511 19.3301ZM9.70196 35.8082L9.7663 35.7843L9.83494 35.7591C14.7671 33.9365 16.8973 27.4858 15.6073 23.2848L15.5638 23.1273C15.5254 23.0112 15.4923 22.8938 15.4645 22.7749L15.4032 22.52C15.3865 22.4718 15.3647 22.4256 15.3382 22.3821C15.3175 22.3469 15.2992 22.3102 15.2837 22.2724C15.2658 22.2403 15.2504 22.2069 15.2377 22.1725C15.1942 22.0603 15.1361 21.9544 15.0649 21.8575C14.962 21.6981 14.8657 21.6087 14.7671 21.4769C14.7207 21.4175 14.6797 21.3541 14.6445 21.2875L14.6396 21.2802C13.5788 19.6604 11.3401 19.0856 9.21904 19.8565C8.17353 20.2365 7.62565 20.9161 7.60482 22.0542C7.52883 26.2889 7.42097 30.5224 7.34314 34.7565C7.32169 35.9479 7.88672 36.3334 9.08728 36.011L9.14856 35.9932L9.19943 35.9755C9.36622 35.9328 9.53 35.8792 9.6897 35.8149L9.70196 35.8082Z" fill="black"/>
<path d="M33.321 33.1874C33.2903 33.1463 33.2659 33.1008 33.2487 33.0525C33.234 32.9761 33.2353 32.8974 33.2524 32.8215C33.268 32.7604 33.2941 32.7026 33.3296 32.6505C33.4448 32.4955 33.6029 32.3777 33.7843 32.3116C34.2329 32.1388 34.2348 31.6467 34.2489 30.9388C34.3047 28.0364 34.3261 25.1739 34.4199 22.3677C34.4572 21.2443 34.4707 20.7645 33.6906 20.683C33.3066 20.6501 32.9487 20.4753 32.6868 20.1927C32.5814 20.0726 32.5249 19.9173 32.5286 19.7576C32.5286 19.6748 32.5035 19.6013 32.6745 19.4916C34.6583 18.9302 36.726 18.6771 38.6282 17.8063C39.1044 17.5881 39.4592 17.924 39.6045 18.4093C39.6737 18.6355 39.7105 18.8806 39.7626 19.1257C40.0029 19.0057 40.2352 18.8704 40.4582 18.7207C40.4927 18.6982 40.5286 18.6778 40.5654 18.6594C40.802 18.5258 41.0208 18.394 41.2745 18.2304C41.3121 18.2085 41.3515 18.1896 41.3921 18.174C41.8469 17.9951 42.2942 17.7959 42.7563 17.6402C44.5912 17.0213 46.2961 17.0384 47.6462 18.69C48.3816 20.0922 48.476 21.6016 48.422 23.1454C48.3467 25.3019 48.3087 27.4591 48.2486 29.6157C48.237 30.0214 48.2939 30.3628 48.7101 30.5742C48.9907 30.7164 49.174 30.9689 49.0986 31.3151C49.0208 31.6761 48.7174 31.7625 48.4141 31.7968C46.7594 31.9807 45.1047 32.1811 43.4464 32.3245C42.6154 32.3962 42.4046 32.1026 42.7159 31.2551L42.7569 31.1938L42.8354 31.1687C43.4893 31.116 43.5034 30.6955 43.5187 30.1636C43.5524 28.9882 43.5892 27.8128 43.6149 26.6367C43.6603 24.6143 43.6977 22.592 43.7375 20.5659C43.7497 19.9414 43.5187 19.4328 42.8452 19.4175C41.5539 19.3874 39.2294 20.9747 39.2233 22.6539C39.2092 25.3062 39.1118 27.958 39.045 30.6098C39.0339 31.0559 39.0891 31.4451 39.4127 31.817C39.8368 32.3073 39.6149 32.7565 39.0345 32.8344C37.3112 33.0648 35.6063 33.4729 33.8561 33.4785C33.7498 33.4775 33.6455 33.4505 33.5522 33.3997C33.4589 33.3489 33.3795 33.276 33.321 33.1874Z" fill="black"/>
<path d="M21.8178 11.3884L21.7516 11.3822L21.6903 11.3596C21.542 11.2615 21.485 11.2266 21.3967 11.1696C21.295 11.1046 21.2699 11.1003 21.1596 11.0219L21.1228 10.9955L21.026 10.914C20.8801 10.7853 20.9083 10.8227 20.7845 10.7197C20.6062 10.5708 20.396 10.4648 20.2329 10.3018C18.6457 8.73047 17.6131 6.85885 17.3122 4.59502C17.1087 3.06292 17.6897 1.69874 18.7897 1.14167C19.5386 0.762321 20.255 0.712681 20.9402 0.943109C21.6394 1.18603 22.2146 1.69495 22.5409 2.35938C23.0048 3.29274 22.9962 4.32047 22.6635 5.36781C22.1243 7.06077 21.9756 8.85384 22.2284 10.6125C22.2792 10.9612 22.2903 11.3099 21.8178 11.3884ZM18.0886 4.24938C18.7015 3.49314 19.2879 3.10827 20.0797 3.0905C20.8715 3.07273 21.4121 3.56484 22.0843 4.07962C22.1236 3.11256 21.8079 2.47643 21.1154 2.04132C20.4609 1.63072 19.7617 1.63255 19.1047 2.01374C18.3356 2.45989 18.0378 3.17201 18.0886 4.24938Z" fill="black"/>
<path d="M81.1304 15.749C80.7357 15.9187 80.6714 16.3526 80.5396 16.6995C79.7061 18.8965 78.8935 21.1033 78.0717 23.3065C78.0061 23.4824 77.9105 23.6485 77.8266 23.8194C77.8295 23.8455 77.8257 23.8719 77.8156 23.8961C77.8055 23.9204 77.7895 23.9416 77.769 23.9579C76.8626 26.7121 75.8943 29.4465 74.717 32.094C73.4913 34.8475 71.4175 36.493 68.3766 36.6707C68.1231 36.6905 67.8683 36.6573 67.6283 36.5733C67.3832 36.4807 67.184 36.3281 67.1693 35.9665C67.1533 35.5124 67.5051 35.3844 67.8434 35.2557C71.04 34.0373 72.6082 30.8622 71.6479 27.5143C70.7636 24.4347 69.4086 21.5372 68.1327 18.6103C67.7956 17.8357 67.6608 16.9103 66.7035 16.5322C66.4798 16.4433 66.3971 16.1522 66.4982 15.8856C66.6245 15.5455 66.9321 15.4744 67.2336 15.4634C68.436 15.4235 69.6329 15.3463 70.8249 15.187C70.8794 15.1821 70.9333 15.1753 70.9879 15.1704C71.5272 15.1275 72.0665 15.0883 72.6039 15.0387C72.9251 15.0093 73.1751 15.0669 73.3302 15.2489C73.417 15.3583 73.4618 15.4953 73.4564 15.6349C73.451 15.7745 73.3958 15.9076 73.3007 16.01C73.0409 16.2987 72.6995 16.5493 72.8791 17.0482C73.6991 19.3243 74.5166 21.6016 75.4009 24.0646C75.8551 22.9229 76.2399 21.9448 76.5041 20.9391C76.5304 20.8386 76.5653 20.7399 76.5948 20.6413C76.6426 20.4936 76.6824 20.3446 76.7388 20.1988C76.7817 20.0646 76.835 19.9659 76.9042 19.7477C76.9588 19.5786 76.9913 19.4058 77.0501 19.2379C77.3479 18.3854 77.6384 17.5305 77.9577 16.6872C78.0993 16.3109 77.9363 16.0872 77.7242 15.809C77.2113 15.1398 77.4215 14.6667 78.2598 14.6054C79.1877 14.5374 80.1174 14.5086 81.0452 14.4687C81.2034 14.4613 81.3589 14.5116 81.4828 14.6103V14.614C81.6844 15.0902 81.7187 15.4977 81.1304 15.749Z" fill="black"/>
<path d="M67.0274 27.5588C66.9703 27.4666 66.8825 27.3975 66.7794 27.3638C66.6763 27.3302 66.5646 27.3341 66.4642 27.3749C66.1853 27.4902 65.9396 27.6758 65.6742 27.826C64.7752 28.3322 64.4001 28.1251 64.4265 27.1059C64.4951 24.5357 64.584 21.9654 64.6777 19.397C64.7108 18.498 64.6103 17.5934 64.7801 16.7005C64.6122 16.0196 64.1482 15.72 63.476 15.6679C62.4954 15.5888 61.567 15.7224 60.7531 16.3205C60.5754 16.4505 60.4338 16.5969 60.1758 16.4737C57.9837 15.4282 56.0404 16.076 54.1969 17.3716C53.8905 17.643 53.6773 17.83 53.4143 18.0769C53.3684 18.1315 53.3224 18.1836 53.2758 18.2381L53.1361 18.3907C53.1079 18.4434 53.0473 18.4851 53.0362 18.5194C52.9798 18.5862 52.9584 18.6162 52.8996 18.6922L52.8965 18.6971C52.7341 18.9637 52.6017 19.196 52.443 19.4485C52.4001 19.5171 52.3535 19.5839 52.3069 19.6495C52.2464 19.7363 52.1904 19.826 52.139 19.9185C52.0888 20.0158 52.0385 20.1138 51.9883 20.2127C51.9459 20.2964 51.908 20.3823 51.8749 20.4701C51.832 20.5828 51.7897 20.6944 51.7376 20.809C51.6812 20.9646 51.6494 21.0241 51.5954 21.1767C51.5783 21.2288 51.5734 21.2698 51.5593 21.3182C51.4649 21.6706 51.4067 21.8594 51.3141 22.2142L51.308 22.2363C51.2492 22.442 51.207 22.652 51.1818 22.8644L51.126 23.2266C51.0927 23.4313 51.0747 23.6382 51.0721 23.8456C51.0555 25.0173 50.9624 26.1915 51.2418 27.3492C51.5115 28.4609 51.7762 29.5634 52.6477 30.3821C52.7053 30.4349 52.7629 30.4876 52.8187 30.5403C53.9831 31.4595 54.9955 31.6581 56.2653 31.3517C57.7624 30.9901 58.9195 30.0034 59.9129 28.847C60.0177 28.7244 60.0894 28.6392 60.2745 28.6018C60.3431 28.6772 60.3879 28.8243 60.4209 28.9457C60.7739 30.2626 61.4401 30.7511 62.7822 30.6775C64.5539 30.5789 66.4942 29.3403 67.0654 27.9872C67.0938 27.919 67.1054 27.8451 67.0994 27.7715C67.0933 27.6979 67.0697 27.6269 67.0304 27.5643L67.0274 27.5588ZM60.2941 26.2418C60.2328 27.0109 59.9135 27.3106 59.4668 27.6709L59.4367 27.7022C59.0954 28.0276 58.7981 28.1667 58.4617 28.3671C58.4135 28.3965 58.3633 28.4225 58.3116 28.445C58.125 28.5256 57.9286 28.581 57.7275 28.6098C57.4297 28.6435 57.3721 28.6527 57.1318 28.6098L57.0994 28.6018C56.0404 28.3635 55.6984 27.4822 55.5256 26.612C55.0304 24.1226 55.3086 21.7092 56.6011 19.4803C57.0185 18.7621 57.5859 18.1621 58.3833 17.8477C59.5409 17.3924 60.473 17.9856 60.4553 19.196C60.4209 21.5438 60.4706 23.8983 60.2941 26.2418Z" fill="black"/>
<path d="M24.9549 35.1404C24.4377 35.1539 24.0896 35.1551 23.978 34.7451C23.888 34.416 24.0246 34.166 24.3255 33.995C24.8771 33.6818 24.9512 33.1517 24.9653 32.5854C25.0397 29.4971 25.1185 26.4088 25.2019 23.3205C25.2154 22.807 25.1406 22.3296 24.6601 22.0305C24.4009 21.8687 24.2655 21.6628 24.3157 21.3527C24.369 21.0205 24.6258 20.8961 24.8985 20.8624C26.5011 20.6669 27.9529 20.048 29.368 19.315C29.6885 19.1489 30.0298 18.9975 30.3307 19.3475C30.6108 19.6741 30.5005 20.0008 30.3025 20.328C30.0653 20.6987 29.9328 21.1267 29.9189 21.5666C29.8454 25.0659 29.769 28.5652 29.6897 32.0645C29.6799 32.48 29.7289 32.8545 30.0029 33.2167C30.4037 33.7449 30.2609 34.1733 29.6192 34.302C28.0124 34.6213 26.3939 34.8842 24.9549 35.1404Z" fill="black"/>
<path d="M23.4956 17.6963C23.4627 17.6792 23.436 17.6524 23.419 17.6195C23.402 17.5865 23.3955 17.5492 23.4006 17.5125C23.4294 17.298 23.5379 17.1233 23.6721 16.9432C24.3714 16.0049 24.6747 14.9385 24.6931 13.7386C24.7194 12.019 24.3389 10.3024 24.7323 8.57605C25.0755 7.06968 25.8507 6.00702 27.3062 5.6387C28.7924 5.26181 30.064 5.69631 31.0391 6.97531C31.0511 6.99106 31.0642 7.006 31.0783 7.02004C31.2158 7.15365 31.3241 7.31433 31.3963 7.49193C31.9571 8.94865 31.848 10.3894 31.2168 11.8462C30.1308 14.3533 28.383 16.1765 26.0162 17.3004C25.2496 17.6626 24.4038 18.1351 23.4956 17.6963ZM29.9856 7.25109L29.8171 7.14629C29.7896 7.08936 29.7466 7.04136 29.6931 7.00785C29.6395 6.97433 29.5775 6.95668 29.5143 6.95692C29.5027 6.86683 29.4567 6.8411 29.3776 6.87664C28.7317 6.57022 28.079 6.52732 27.4166 6.82148L27.2204 6.92689C27.1983 6.92735 27.1766 6.93316 27.1571 6.94383C27.1377 6.9545 27.1212 6.96972 27.1089 6.98818C26.9863 6.96857 26.8809 6.98818 26.838 7.13465C26.4807 7.36017 26.1946 7.64821 26.0714 8.08148C25.9402 8.1348 25.9016 8.23837 25.9243 8.37565C25.9071 8.39226 25.8938 8.41247 25.8853 8.43482C25.8768 8.45717 25.8734 8.48112 25.8753 8.50496L25.7852 8.69555L25.7202 8.96704C25.6087 9.06693 25.5976 9.19256 25.6405 9.33474L25.6038 9.67425C25.3997 9.97332 25.4812 10.2577 25.7343 10.444C26.0193 10.6536 26.1633 10.4146 26.2589 10.1547C26.6009 9.36967 27.131 8.77277 27.8725 8.38852L28.06 8.28433C28.7826 8.05697 29.5345 8.13603 30.2712 8.05391C30.8423 7.53973 30.3018 7.44474 29.9991 7.25721L29.9856 7.25109Z" fill="black"/>
<path d="M18.3 4.24967C18.3 4.24967 18.0469 4.49481 17.8894 4.24967C17.7319 4.00454 17.8637 2.53801 18.8087 1.9025C19.5508 1.40426 20.7152 1.3393 21.5383 2.04651C21.8508 2.32676 22.0757 2.69129 22.186 3.09631C22.3086 3.51856 22.2945 3.76676 22.2675 4.17491C22.2547 4.36979 22.1272 4.42004 21.9918 4.28093C21.974 4.26254 21.955 4.24171 21.9348 4.21965C21.7419 3.98027 21.5026 3.78243 21.2312 3.63806C20.5583 3.28445 19.4283 3.01725 18.3 4.24967Z" fill="white"/>
<path d="M26.2214 10.5371C26.2214 10.5371 26.0234 10.933 25.7311 10.7602C25.4388 10.5874 25.1513 9.02711 25.8181 7.78979C26.3206 6.85827 27.7394 6.23195 28.9706 6.42377C29.2912 6.47735 29.5977 6.5948 29.8721 6.76913C30.1464 6.94346 30.3829 7.17113 30.5676 7.43863C30.76 7.71196 30.8403 7.95403 30.9543 8.30518C31.023 8.51723 30.893 8.64041 30.6693 8.56625C30.6367 8.55566 30.6045 8.54339 30.5731 8.52948C30.2265 8.37958 29.8532 8.30121 29.4755 8.29906C28.5134 8.29538 27.0383 8.62876 26.2214 10.5371Z" fill="white"/>
</svg>
