<svg width="18" height="18" viewBox="0 0 18 18" fill="none" xmlns="http://www.w3.org/2000/svg">
<path d="M15.4 9V17H2.59998V9" stroke="#FF7A00" stroke-width="1.5" stroke-linecap="round" stroke-linejoin="round"/>
<path d="M17 5H1V9H17V5Z" stroke="#FF7A00" stroke-width="1.5" stroke-linecap="round" stroke-linejoin="round"/>
<path d="M9 17V5" stroke="#FF7A00" stroke-width="1.5" stroke-linecap="round" stroke-linejoin="round"/>
<path d="M9.00002 5H5.40002C4.86959 5 4.36088 4.78929 3.98581 4.41421C3.61074 4.03914 3.40002 3.53043 3.40002 3C3.40002 2.46957 3.61074 1.96086 3.98581 1.58579C4.36088 1.21071 4.86959 1 5.40002 1C8.20002 1 9.00002 5 9.00002 5Z" stroke="#FF7A00" stroke-width="1.5" stroke-linecap="round" stroke-linejoin="round"/>
<path d="M9 5H12.6C13.1304 5 13.6391 4.78929 14.0142 4.41421C14.3893 4.03914 14.6 3.53043 14.6 3C14.6 2.46957 14.3893 1.96086 14.0142 1.58579C13.6391 1.21071 13.1304 1 12.6 1C9.8 1 9 5 9 5Z" stroke="#FF7A00" stroke-width="1.5" stroke-linecap="round" stroke-linejoin="round"/>
</svg>
